<svg width="13" height="12" viewBox="0 0 13 12" fill="none" xmlns="http://www.w3.org/2000/svg">
<path d="M3.15174 6.44445C3.65544 6.5926 4.05544 6.87408 4.35174 7.28889C4.64803 7.67408 4.79618 8.13334 4.79618 8.66667C4.79618 9.37778 4.55914 9.95556 4.08507 10.4C3.64063 10.8444 3.07766 11.0667 2.39618 11.0667C1.68507 11.0667 1.10729 10.8444 0.662847 10.4C0.218403 9.92593 -0.00381941 9.34815 -0.00381941 8.66667C-0.00381941 8.28149 0.0258102 7.91112 0.0850694 7.55556C0.173958 7.20001 0.336921 6.72593 0.573959 6.13334L2.48507 4.29153e-06H4.70729L3.15174 6.44445ZM10.7962 6.44445C11.2999 6.5926 11.6999 6.87408 11.9962 7.28889C12.2925 7.67408 12.4406 8.13334 12.4406 8.66667C12.4406 9.37778 12.2036 9.95556 11.7295 10.4C11.2851 10.8444 10.7221 11.0667 10.0406 11.0667C9.32951 11.0667 8.75174 10.8444 8.30729 10.4C7.86285 9.92593 7.64062 9.34815 7.64062 8.66667C7.64062 8.28149 7.67025 7.91112 7.72951 7.55556C7.8184 7.20001 7.98137 6.72593 8.2184 6.13334L10.1295 4.29153e-06H12.3517L10.7962 6.44445Z" fill="black"/>
</svg>
